<?xml version="1.0" encoding="UTF-8"?>
<svg version="1.1" xmlns="http://www.w3.org/2000/svg" width="323" height="142">
<path d="M0 0 C0.66 0 1.32 0 2 0 C2 0.66 2 1.32 2 2 C3.28390625 2.39251953 3.28390625 2.39251953 4.59375 2.79296875 C16.76895475 7.1073475 26.78766144 13.53240585 33 25 C33.99 27.64 34.98 30.28 36 33 C36.33 22.11 36.66 11.22 37 0 C42.135625 -0.0825 47.27125 -0.165 52.5625 -0.25 C54.14877197 -0.28641602 55.73504395 -0.32283203 57.36938477 -0.36035156 C71.86684977 -0.47154632 85.75806641 1.88208536 97.0234375 11.77734375 C101.90571615 16.81412489 104.00569079 22.36302472 106 29 C106.495 30.485 106.495 30.485 107 32 C107.89362437 43.25966712 104.05080842 53.25699756 97 62 C95.68557638 63.35197858 94.3565164 64.69026002 93 66 C93.79664062 66.81791016 93.79664062 66.81791016 94.609375 67.65234375 C99.41441292 72.78180941 102.60806516 77.40329549 105 84 C105.4125 84.969375 105.825 85.93875 106.25 86.9375 C108.56987559 96.41032534 106.52960716 105.60854919 101.84375 114.09375 C100.95622147 115.43772177 99.9888003 116.72868533 99 118 C97.515 117.505 97.515 117.505 96 117 C96.04125 115.845 96.0825 114.69 96.125 113.5 C96.0909611 103.8159326 92.4834608 93.91779666 85.89453125 86.76171875 C75.55533592 77.14733299 67.64802291 73.65562532 53.68359375 73.69921875 C49.80615061 74.01582864 46.68545856 74.80945933 43 76 C42.67 75.01 42.34 74.02 42 73 C41.34 73 40.68 73 40 73 C40.76429661 74.44098611 41.53672555 75.87766054 42.3125 77.3125 C42.74175781 78.11300781 43.17101563 78.91351563 43.61328125 79.73828125 C44.89283846 82.02250381 44.89283846 82.02250381 46.66796875 83.66796875 C47.10753906 84.10753906 47.54710937 84.54710938 48 85 C48 85.66 48 86.32 48 87 C48.56203125 87.268125 49.1240625 87.53625 49.703125 87.8125 C52.15550646 89.0803979 54.43927683 90.48972342 56.75 92 C57.54921875 92.515625 58.3484375 93.03125 59.171875 93.5625 C59.77515625 94.036875 60.3784375 94.51125 61 95 C61 95.66 61 96.32 61 97 C54.54974387 96.51623079 49.62801078 93.6892568 45.15625 89.11328125 C43.71916296 87.44232863 42.33425561 85.75373749 41 84 C42.12207466 91.47065497 43.66972798 96.56881065 49.0625 102.125 C57.21014457 107.3256242 65.63201131 108.57517538 75.09814453 109.22900391 C84.01803103 109.91628903 89.99166084 112.24061845 96 119 C94.48456464 123.54630607 91.12769601 124.85610393 87 127 C79.13571997 130.28014415 71.37148849 131.15987476 62.87890625 131.09765625 C62.2175769 131.09664917 61.55624756 131.09564209 60.87487793 131.09460449 C58.43740063 131.0894276 55.99994831 131.07546698 53.5625 131.0625 C45.3640625 131.0315625 45.3640625 131.0315625 37 131 C36.67 110.54 36.34 90.08 36 69 C36.99 69 37.98 69 39 69 C38.67 67.02 38.34 65.04 38 63 C37.34 63 36.68 63 36 63 C36.33 60.03 36.66 57.06 37 54 C36.34 53.79375 35.68 53.5875 35 53.375 C27.88409101 50.11354171 23.18280687 45.53563573 19 39 C19.309375 39.7425 19.61875 40.485 19.9375 41.25 C20.8094925 43.50692176 21.47667007 45.6450153 22 48 C22.598125 48.020625 23.19625 48.04125 23.8125 48.0625 C26 49 26 49 27.4375 52.25 C27.66953125 52.87777344 27.9015625 53.50554688 28.140625 54.15234375 C29.47018974 57.01090795 31.73587442 58.85825958 34 61 C34 61.66 34 62.32 34 63 C33.34 63 32.68 63 32 63 C32 63.66 32 64.32 32 65 C28.53846154 68 28.53846154 68 26 68 C26 68.66 26 69.32 26 70 C24.83981745 71.16018255 23.6761607 72.31707989 22.49609375 73.45703125 C17.47121174 78.63935082 14.02180231 84.49150271 11 91 C11.825 90.01 12.65 89.02 13.5 88 C19.41972434 81.14923921 24.5735294 75.61134454 33 72 C36.3614214 82.0842642 28.7760513 97.60396063 24.3203125 106.6003418 C18.45986896 118.01031871 10.47589837 128.14193052 -1.58203125 133.3125 C-6.08583255 134.59306386 -10.81260637 134.09369682 -15 132 C-18.52423135 121.70412954 -16.81190796 106.9012694 -13 97 C-12.67515625 96.09636719 -12.3503125 95.19273438 -12.015625 94.26171875 C-9.56742403 87.75515388 -9.56742403 87.75515388 -7.4296875 84.91015625 C-5.7831264 82.94991844 -5.7831264 82.94991844 -5.125 79.875 C-4.75375 78.92625 -4.3825 77.9775 -4 77 C-2.34787841 76.29806233 -0.67828978 75.63684035 1 75 C2.67447948 73.87483471 4.32021855 72.70593498 5.9375 71.5 C9.57472585 68.87251148 12.69663943 67.32411095 17 66 C17.495 64.515 17.495 64.515 18 63 C21.3 63 24.6 63 28 63 C28 62.34 28 61.68 28 61 C27.319375 60.9175 26.63875 60.835 25.9375 60.75 C18.2144603 58.77816008 10.25981491 53.05838495 5.93359375 46.34521484 C1.75206812 39.00965825 -1.12211866 32.2166896 -1.1328125 23.69140625 C-1.13474609 22.19963867 -1.13474609 22.19963867 -1.13671875 20.67773438 C-1.13285156 19.64970703 -1.12898437 18.62167969 -1.125 17.5625 C-1.12886719 16.53833984 -1.13273438 15.51417969 -1.13671875 14.45898438 C-1.13033939 9.53092798 -1.04637919 4.8415799 0 0 Z M95 13 C94.57589844 13.40992188 94.15179688 13.81984375 93.71484375 14.2421875 C93.12832031 14.78101563 92.54179688 15.31984375 91.9375 15.875 C91.36902344 16.40867187 90.80054688 16.94234375 90.21484375 17.4921875 C84.56464978 21.33870403 77.7853266 21.38597292 71.1875 21.875 C60.91540504 22.781581 52.50111942 24.49888058 45 32 C42.39273663 35.72466196 41.45294165 38.82940847 40.8125 43.3125 C40.65394531 44.38113281 40.49539062 45.44976562 40.33203125 46.55078125 C40.22246094 47.35902344 40.11289062 48.16726562 40 49 C40.680625 48.29875 41.36125 47.5975 42.0625 46.875 C43.03811394 45.91305012 44.01761175 44.95503061 45 44 C45.77923828 43.2265625 45.77923828 43.2265625 46.57421875 42.4375 C50.96710134 38.34157218 55.21081767 36.49652332 61 35 C61 35.66 61 36.32 61 37 C60.26523438 37.268125 59.53046875 37.53625 58.7734375 37.8125 C50.26587446 41.45517488 44.60516103 48.16026158 40 56 C39.67 56.99 39.34 57.98 39 59 C39.99 59 40.98 59 42 59 C42.66 58.01 43.32 57.02 44 56 C45.11375 56.495 46.2275 56.99 47.375 57.5 C55.61721276 60.54729697 64.0465345 59.4866206 72 56 C83.67908375 49.35965808 91.95784552 40.92045806 96 28 C97.05468094 23.53272086 97.22515695 19.57819137 97 15 C96.34 14.34 95.68 13.68 95 13 Z M17 35 C18 37 18 37 18 37 Z M36 42 C37 44 37 44 37 44 Z " fill="#1D594F" transform="translate(17,5)"/>
<path d="M0 0 C0.66 0 1.32 0 2 0 C2 0.66 2 1.32 2 2 C3.28390625 2.39251953 3.28390625 2.39251953 4.59375 2.79296875 C17.74533188 7.45333435 27.89691091 14.48801872 34.04296875 27.1484375 C35.69387897 31.19433016 36.32628496 34.64953392 36 39 C35.34 38.34 34.68 37.68 34 37 C32.68 37 31.36 37 30 37 C31.13963806 40.41891419 32.30956928 41.47202357 35.125 43.625 C37.88733236 47.12395433 37.29191558 49.62126628 37 54 C28.903235 51.46976094 23.45918326 45.96747385 19 39 C19.309375 39.7425 19.61875 40.485 19.9375 41.25 C20.8094925 43.50692176 21.47667007 45.6450153 22 48 C22.598125 48.020625 23.19625 48.04125 23.8125 48.0625 C26 49 26 49 27.4375 52.25 C27.66953125 52.87777344 27.9015625 53.50554688 28.140625 54.15234375 C29.47018974 57.01090795 31.73587442 58.85825958 34 61 C34 61.66 34 62.32 34 63 C33.34 63 32.68 63 32 63 C32 63.66 32 64.32 32 65 C28.53846154 68 28.53846154 68 26 68 C26 68.66 26 69.32 26 70 C24.83981745 71.16018255 23.6761607 72.31707989 22.49609375 73.45703125 C17.47121174 78.63935082 14.02180231 84.49150271 11 91 C11.825 90.01 12.65 89.02 13.5 88 C19.41972434 81.14923921 24.5735294 75.61134454 33 72 C36.3614214 82.0842642 28.7760513 97.60396063 24.3203125 106.6003418 C18.45986896 118.01031871 10.47589837 128.14193052 -1.58203125 133.3125 C-6.08583255 134.59306386 -10.81260637 134.09369682 -15 132 C-18.52423135 121.70412954 -16.81190796 106.9012694 -13 97 C-12.67515625 96.09636719 -12.3503125 95.19273438 -12.015625 94.26171875 C-9.56742403 87.75515388 -9.56742403 87.75515388 -7.4296875 84.91015625 C-5.7831264 82.94991844 -5.7831264 82.94991844 -5.125 79.875 C-4.75375 78.92625 -4.3825 77.9775 -4 77 C-2.34787841 76.29806233 -0.67828978 75.63684035 1 75 C2.67447948 73.87483471 4.32021855 72.70593498 5.9375 71.5 C9.57472585 68.87251148 12.69663943 67.32411095 17 66 C17.495 64.515 17.495 64.515 18 63 C21.3 63 24.6 63 28 63 C28 62.34 28 61.68 28 61 C27.319375 60.9175 26.63875 60.835 25.9375 60.75 C18.2144603 58.77816008 10.25981491 53.05838495 5.93359375 46.34521484 C1.75206812 39.00965825 -1.12211866 32.2166896 -1.1328125 23.69140625 C-1.13474609 22.19963867 -1.13474609 22.19963867 -1.13671875 20.67773438 C-1.13285156 19.64970703 -1.12898437 18.62167969 -1.125 17.5625 C-1.12886719 16.53833984 -1.13273438 15.51417969 -1.13671875 14.45898438 C-1.13033939 9.53092798 -1.04637919 4.8415799 0 0 Z M17 35 C18 37 18 37 18 37 Z " fill="#176D60" transform="translate(17,5)"/>
<path d="M0 0 C4.49642692 3.34083779 8.28073532 6.8400119 11.55859375 11.38671875 C11.55859375 12.04671875 11.55859375 12.70671875 11.55859375 13.38671875 C12.21859375 13.38671875 12.87859375 13.38671875 13.55859375 13.38671875 C12.42682134 16.78203598 11.52547362 17.51222059 8.74609375 19.63671875 C8.05902344 20.178125 7.37195313 20.71953125 6.6640625 21.27734375 C4.55859375 22.38671875 4.55859375 22.38671875 2.53515625 22.33203125 C-0.13791975 21.0536036 -1.4164863 19.32439804 -3.25390625 17.01171875 C-7.3026616 12.32172406 -10.54341694 9.87869798 -16.85546875 9.08203125 C-22.90963011 8.77109245 -26.63601657 9.66009002 -31.44140625 13.38671875 C-34.43099274 17.72644107 -35.07014385 21.17717867 -34.44140625 26.38671875 C-30.43759612 37.66626988 -19.86749174 44.08647527 -10.65649414 50.95581055 C0.90671563 59.6559771 12.68446129 69.38072191 15.55859375 84.38671875 C16.51223517 93.15709311 14.78195551 100.94113927 9.5703125 108.12890625 C2.5835659 116.26201024 -4.66215855 121.76245813 -15.60546875 122.640625 C-27.29356032 123.0353209 -36.77519761 120.41622635 -45.44140625 112.38671875 C-56.43635718 101.15361004 -56.43635718 101.15361004 -56.4453125 96.24609375 C-54.98384464 93.53925056 -53.14424947 92.89687516 -50.37890625 91.63671875 C-49.45980469 91.20875 -48.54070312 90.78078125 -47.59375 90.33984375 C-46.88347656 90.0253125 -46.17320312 89.71078125 -45.44140625 89.38671875 C-44.94511719 90.11117187 -44.44882813 90.835625 -43.9375 91.58203125 C-36.2690323 102.73139708 -36.2690323 102.73139708 -24.44140625 108.38671875 C-17.70425264 109.06043411 -12.39185514 107.64680511 -6.44140625 104.38671875 C-2.25444684 100.19975934 -0.14921651 96.12274895 -0.00390625 90.19921875 C-0.22431301 80.97886926 -5.07158691 75.08430484 -11.52734375 68.8984375 C-15.8802657 65.1465222 -20.46510286 61.72142384 -25.05273438 58.26367188 C-36.253162 49.7965051 -46.54435106 41.8719947 -49.44140625 27.38671875 C-50.06319917 19.80084508 -48.98521855 12.98528249 -44.51953125 6.66796875 C-32.83114712 -7.03565403 -15.34213015 -10.1380796 0 0 Z " fill="#1D584E" transform="translate(227.44140625,13.61328125)"/>
<path d="M0 0 C5.26282978 3.87834167 9.53046059 8.38339273 13.62890625 13.45703125 C12.29422949 16.54264535 10.9780223 18.30079236 8.25390625 20.26953125 C7.37605469 20.92888672 7.37605469 20.92888672 6.48046875 21.6015625 C4.62890625 22.45703125 4.62890625 22.45703125 2.60546875 22.33203125 C0.07886615 21.21353524 -0.9488759 19.83221431 -2.62109375 17.64453125 C-6.70506881 12.81486223 -10.52226754 10.03798615 -16.85546875 9.08203125 C-22.8359051 8.7920707 -26.70999254 9.65205067 -31.37109375 13.45703125 C-33.8164808 17.28165044 -34.64536627 21.07446055 -34.30859375 25.58203125 C-31.73938488 36.20142789 -21.98714954 42.59695595 -13.56103516 48.75927734 C-0.44546641 58.35172334 10.31262012 67.50817285 15.62890625 83.45703125 C16.5730688 93.62612628 14.95970009 101.75586615 8.37890625 109.70703125 C0.28296993 118.23360249 -7.38807532 122.49322277 -19.24609375 122.89453125 C-30.57514482 122.61374658 -39.40505493 118.56977594 -47.27734375 110.50390625 C-56.37109375 100.40830244 -56.37109375 100.40830244 -56.37109375 95.45703125 C-52.74109375 93.47703125 -49.11109375 91.49703125 -45.37109375 89.45703125 C-44.19546875 91.14828125 -43.01984375 92.83953125 -41.80859375 94.58203125 C-37.0849789 101.05513308 -32.54897276 106.78807635 -24.37109375 108.45703125 C-17.65109399 109.12903123 -12.28030161 107.77715319 -6.37109375 104.45703125 C-2.74414842 101.28552426 -0.61268837 97.90862256 -0.1328125 93.0390625 C0.08857421 84.7778425 -1.18555518 80.10552007 -6.62890625 73.87109375 C-12.32135831 67.94629671 -18.4697067 62.91912794 -25.0234375 57.98828125 C-46.61727882 41.72460553 -46.61727882 41.72460553 -49.1875 28.58203125 C-49.94636978 19.79851718 -48.31087388 11.50674944 -42.83203125 4.484375 C-31.41279561 -7.79521401 -13.87724406 -9.03049654 0 0 Z " fill="#1D584E" transform="translate(304.37109375,13.54296875)"/>
<path d="M0 0 C9.77625 -0.165 19.5525 -0.33 29.625 -0.5 C32.70279785 -0.57283203 35.7805957 -0.64566406 38.95166016 -0.72070312 C41.39743256 -0.74407289 43.8432361 -0.76445751 46.2890625 -0.78125 C47.55387451 -0.82217773 48.81868652 -0.86310547 50.12182617 -0.90527344 C58.87386136 -0.91222363 58.87386136 -0.91222363 62.12228394 1.71914673 C63.68337744 3.75481547 64.87858657 5.69719327 66 8 C66.55429688 9.08023438 67.10859375 10.16046875 67.6796875 11.2734375 C72.24077668 23.10842054 71.98328892 31.28253686 67 43 C65.79165922 45.18807655 64.53844253 47.02200247 63 49 C62.01 48.67 61.02 48.34 60 48 C60.04125 46.845 60.0825 45.69 60.125 44.5 C60.0909611 34.8159326 56.4834608 24.91779666 49.89453125 17.76171875 C39.55533592 8.14733299 31.64802291 4.65562532 17.68359375 4.69921875 C13.80615061 5.01582864 10.68545856 5.80945933 7 7 C6.67 6.01 6.34 5.02 6 4 C5.34 4 4.68 4 4 4 C4.76429661 5.44098611 5.53672555 6.87766054 6.3125 8.3125 C6.74175781 9.11300781 7.17101563 9.91351563 7.61328125 10.73828125 C8.89283846 13.02250381 8.89283846 13.02250381 10.66796875 14.66796875 C11.10753906 15.10753906 11.54710938 15.54710938 12 16 C12 16.66 12 17.32 12 18 C12.56203125 18.268125 13.1240625 18.53625 13.703125 18.8125 C16.15550646 20.0803979 18.43927683 21.48972342 20.75 23 C21.54921875 23.515625 22.3484375 24.03125 23.171875 24.5625 C23.77515625 25.036875 24.3784375 25.51125 25 26 C25 26.66 25 27.32 25 28 C18.54974387 27.51623079 13.62801078 24.6892568 9.15625 20.11328125 C7.71916296 18.44232863 6.33425561 16.75373749 5 15 C6.12207466 22.47065497 7.66972798 27.56881065 13.0625 33.125 C21.21014457 38.3256242 29.63201131 39.57517538 39.09814453 40.22900391 C48.01803103 40.91628903 53.99166084 43.24061845 60 50 C58.48456464 54.54630607 55.12769601 55.85610393 51 58 C43.13571997 61.28014415 35.37148849 62.15987476 26.87890625 62.09765625 C26.2175769 62.09664917 25.55624756 62.09564209 24.87487793 62.09460449 C22.43740063 62.0894276 19.99994831 62.07546698 17.5625 62.0625 C9.3640625 62.0315625 9.3640625 62.0315625 1 62 C0.67 41.54 0.34 21.08 0 0 Z " fill="#154C41" transform="translate(53,74)"/>
<path d="M0 0 C3.3614214 10.0842642 -4.2239487 25.60396063 -8.6796875 34.6003418 C-14.54013104 46.01031871 -22.52410163 56.14193052 -34.58203125 61.3125 C-39.08583255 62.59306386 -43.81260637 62.09369682 -48 60 C-51.51923985 49.71871198 -49.82855202 34.88375145 -46 25 C-45.64035156 24.04996094 -45.28070313 23.09992188 -44.91015625 22.12109375 C-43.97674267 19.73275082 -42.99354822 17.36395956 -42 15 C-35.07 15 -28.14 15 -21 15 C-21 15.99 -21 16.98 -21 18 C-20.20335938 17.10796875 -19.40671875 16.2159375 -18.5859375 15.296875 C-17.5159659 14.11427481 -16.44563418 12.93200038 -15.375 11.75 C-14.85292969 11.16347656 -14.33085938 10.57695313 -13.79296875 9.97265625 C-9.76778538 5.54992391 -5.78762568 1.92920856 0 0 Z " fill="#16DAB3" transform="translate(50,77)"/>
<path d="M0 0 C1.4375 1.69140625 1.4375 1.69140625 2.75 3.625 C3.28625 4.31464844 3.8225 5.00429687 4.375 5.71484375 C10.13591309 13.59455421 13.014218 21.83466059 11.75 31.625 C9.53057811 41.95270988 3.3749289 49.80306287 -5.375 55.625 C-13.98024529 60.38141487 -23.75693881 61.07891701 -33.3203125 58.9375 C-44.53000343 55.1905281 -52.29209037 47.61360029 -59.04296875 38.09765625 C-60.25 35.625 -60.25 35.625 -60.25390625 33.484375 C-58.79243839 30.77753181 -56.95284322 30.13515641 -54.1875 28.875 C-53.26839844 28.44703125 -52.34929687 28.0190625 -51.40234375 27.578125 C-50.69207031 27.26359375 -49.98179687 26.9490625 -49.25 26.625 C-48.75371094 27.34945312 -48.25742188 28.07390625 -47.74609375 28.8203125 C-40.07762605 39.96967833 -40.07762605 39.96967833 -28.25 45.625 C-21.51284639 46.29871536 -16.20044889 44.88508636 -10.25 41.625 C-6.06304059 37.43804059 -3.95781026 33.3610302 -3.8125 27.4375 C-4.04442005 17.73551135 -9.34673986 12.06870738 -16.06640625 5.5703125 C-18.20260882 3.59833747 -18.20260882 3.59833747 -20.52734375 1.9921875 C-21.09582031 1.54101562 -21.66429687 1.08984375 -22.25 0.625 C-22.25 -0.035 -22.25 -0.695 -22.25 -1.375 C-4.17646824 -3.47879735 -4.17646824 -3.47879735 0 0 Z " fill="#144C41" transform="translate(231.25,76.375)"/>
<path d="M0 0 C3.18653222 -0.20521899 6.37135052 -0.32822933 9.5625 -0.4375 C10.45775391 -0.49615234 11.35300781 -0.55480469 12.27539062 -0.61523438 C16.0553131 -0.71215546 18.86919136 -0.73903034 22.09570312 1.36962891 C25.74213115 4.8607461 28.24640847 8.66353205 30.375 13.25 C30.85710937 14.26578125 31.33921875 15.2815625 31.8359375 16.328125 C35.04768114 23.70004664 35.19072361 31.66098621 32.4375 39.25 C28.25121203 48.41576733 20.26729093 56.13547676 10.875 59.875 C0.77677596 62.78259209 -9.69427162 61.75626117 -19 57 C-26.97106169 52.23989602 -33.3540611 44.99101491 -38 37 C-38 36.01 -38 35.02 -38 34 C-34.37 32.02 -30.74 30.04 -27 28 C-25.824375 29.69125 -24.64875 31.3825 -23.4375 33.125 C-18.71388515 39.59810183 -14.17787901 45.3310451 -6 47 C0.71999976 47.67199998 6.09079214 46.32012194 12 43 C15.62694533 39.82849301 17.75840538 36.45159131 18.23828125 31.58203125 C18.46565967 23.097226 17.11913171 18.42730939 11.390625 12.1328125 C7.81381205 8.43814838 4.29475351 4.863169 0 2 C0 1.34 0 0.68 0 0 Z " fill="#144C41" transform="translate(286,75)"/>
<path d="M0 0 C3.96 0 7.92 0 12 0 C12 41.58 12 83.16 12 126 C8.04 126 4.08 126 0 126 C0 84.42 0 42.84 0 0 Z " fill="#1C564C" transform="translate(126,7)"/>
<path d="M0 0 C4.29 0 8.58 0 13 0 C13 30.03 13 60.06 13 91 C8.71 91 4.42 91 0 91 C0 60.97 0 30.94 0 0 Z " fill="#154F44" transform="translate(152,42)"/>
<path d="M0 0 C3.63 0 7.26 0 11 0 C11 19.14 11 38.28 11 58 C7.04 58 3.08 58 -1 58 C-1.02255577 50.58539637 -1.04091784 43.17081135 -1.05181217 35.75618076 C-1.05703982 32.31359652 -1.06413531 28.87103688 -1.07543945 25.4284668 C-1.08834235 21.47444957 -1.09322918 17.52044244 -1.09765625 13.56640625 C-1.10281754 12.32476212 -1.10797882 11.08311798 -1.11329651 9.80384827 C-1.11337204 8.66274094 -1.11344757 7.52163361 -1.11352539 6.34594727 C-1.115746 5.335569 -1.11796661 4.32519073 -1.12025452 3.28419495 C-1 1 -1 1 0 0 Z " fill="#154F44" transform="translate(127,75)"/>
<path d="M0 0 C4.29 0 8.58 0 13 0 C13 10.89 13 21.78 13 33 C6.565 33.495 6.565 33.495 0 34 C0 22.78 0 11.56 0 0 Z " fill="#1F5A4D" transform="translate(152,42)"/>
<path d="M0 0 C3.49406513 3.05730699 4.80770576 4.92315225 5.625 9.5 C4.81377742 14.04284646 3.43030767 15.93461868 0 19 C-3.93283177 20.19389536 -5.96253872 20.44799464 -9.75 18.8125 C-13.37121713 15.89540842 -14.80323583 14.32815813 -15.5 9.625 C-14.84053371 4.84386936 -13.37565893 3.37565893 -10 0 C-6.6938596 -1.6530702 -3.41578372 -1.05151277 0 0 Z " fill="#A61A21" transform="translate(164,6)"/>
<path d="M0 0 C1.20594333 3.61782999 0.72616386 5.37561656 -0.125 9.0625 C-0.35445312 10.12597656 -0.58390625 11.18945312 -0.8203125 12.28515625 C-2 15 -2 15 -4.4296875 16.37109375 C-7 17 -7 17 -10 17 C-10 16.34 -10 15.68 -10 15 C-12.31 15 -14.62 15 -17 15 C-13.55192137 7.36735993 -7.46397815 3.27367463 0 0 Z " fill="#169F88" transform="translate(50,77)"/>
<path d="M0 0 C-0.1875 2.375 -0.1875 2.375 -1 5 C-3.88909849 6.59660706 -5.69058796 7 -9 7 C-9.33 5.02 -9.66 3.04 -10 1 C-6.21812119 -0.83691257 -4.05431692 -1.15837626 0 0 Z " fill="#1FA689" transform="translate(49,87)"/>
<path d="M0 0 C2 1 4 2 6 3 C6 5.64 6 8.28 6 11 C1.42004773 9.55369928 1.42004773 9.55369928 -0.375 7.1875 C-1.1508614 4.4719851 -0.74778098 2.69201151 0 0 Z " fill="#157167" transform="translate(48,48)"/>
<path d="M0 0 C1.65 0.33 3.3 0.66 5 1 C5 1.66 5 2.32 5 3 C5.66 3 6.32 3 7 3 C7 5.31 7 7.62 7 10 C6.01 10.495 6.01 10.495 5 11 C3.96680187 9.7391988 2.94875621 8.46596742 1.9375 7.1875 C1.08478516 6.12595703 1.08478516 6.12595703 0.21484375 5.04296875 C-0.18605469 4.36878906 -0.58695313 3.69460937 -1 3 C-0.67 2.01 -0.34 1.02 0 0 Z " fill="#1A655C" transform="translate(47,41)"/>
<path d="M0 0 C1.15941038 3.47823115 0.70820884 5.45895578 0 9 C-0.66 8.01 -1.32 7.02 -2 6 C-4.05003955 4.80767387 -4.05003955 4.80767387 -6 4 C-3.94766315 1.7522025 -2.99332739 0.9977758 0 0 Z " fill="#16957D" transform="translate(50,77)"/>
<path d="M0 0 C1.65 0.33 3.3 0.66 5 1 C4.67 2.32 4.34 3.64 4 5 C2.35 4.67 0.7 4.34 -1 4 C-0.67 2.68 -0.34 1.36 0 0 Z " fill="#EA901B" transform="translate(38,53)"/>
<path d="M0 0 C1.32 0 2.64 0 4 0 C4 1.65 4 3.3 4 5 C2.35 4.67 0.7 4.34 -1 4 C-0.67 2.68 -0.34 1.36 0 0 Z " fill="#CD1C3D" transform="translate(13,82)"/>
<path d="M0 0 C1.98 0.495 1.98 0.495 4 1 C4 2.32 4 3.64 4 5 C2.35 4.67 0.7 4.34 -1 4 C-0.67 2.68 -0.34 1.36 0 0 Z " fill="#03EE14" transform="translate(28,82)"/>
<path d="M0 0 C1.98 0.495 1.98 0.495 4 1 C3.67 2.32 3.34 3.64 3 5 C1.68 5 0.36 5 -1 5 C-0.67 3.35 -0.34 1.7 0 0 Z " fill="#A8E313" transform="translate(28,51)"/>
<path d="M0 0 C1.32 0 2.64 0 4 0 C3.67 1.65 3.34 3.3 3 5 C1.68 4.67 0.36 4.34 -1 4 C-0.67 2.68 -0.34 1.36 0 0 Z " fill="#03E70D" transform="translate(28,41)"/>
<path d="M0 0 C2.475 0.495 2.475 0.495 5 1 C4.67 2.32 4.34 3.64 4 5 C2.68 4.67 1.36 4.34 0 4 C0 2.68 0 1.36 0 0 Z " fill="#02FB15" transform="translate(18,103)"/>
<path d="M0 0 C0.99 0 1.98 0 3 0 C3.33 1.32 3.66 2.64 4 4 C2.35 4.33 0.7 4.66 -1 5 C-0.67 3.35 -0.34 1.7 0 0 Z " fill="#E49420" transform="translate(40,87)"/>
<path d="M0 0 C1.32 0 2.64 0 4 0 C4 1.65 4 3.3 4 5 C2.68 5 1.36 5 0 5 C-0.5625 3.0625 -0.5625 3.0625 -1 1 C-0.67 0.67 -0.34 0.34 0 0 Z " fill="#00FC02" transform="translate(35,68)"/>
<path d="M0 0 C0.33 0.99 0.66 1.98 1 3 C1.99 3 2.98 3 4 3 C3.34 4.32 2.68 5.64 2 7 C0.35 5.35 -1.3 3.7 -3 2 C-2.01 1.34 -1.02 0.68 0 0 Z " fill="#14926D" transform="translate(34,70)"/>
<path d="M0 0 C1.32 0 2.64 0 4 0 C3.67 1.65 3.34 3.3 3 5 C1.68 4.34 0.36 3.68 -1 3 C-0.67 2.01 -0.34 1.02 0 0 Z " fill="#C21F3E" transform="translate(47,41)"/>
<path d="M0 0 C1.65 0 3.3 0 5 0 C5 1.32 5 2.64 5 4 C3.35 3.67 1.7 3.34 0 3 C0 2.01 0 1.02 0 0 Z " fill="#02ACEF" transform="translate(44,83)"/>
<path d="M0 0 C2.475 0.495 2.475 0.495 5 1 C4.67 1.99 4.34 2.98 4 4 C2.68 4 1.36 4 0 4 C0 2.68 0 1.36 0 0 Z " fill="#B9F30C" transform="translate(39,98)"/>
<path d="M0 0 C2.475 0.495 2.475 0.495 5 1 C4.67 1.99 4.34 2.98 4 4 C2.68 4 1.36 4 0 4 C0 2.68 0 1.36 0 0 Z " fill="#C91E3E" transform="translate(30,74)"/>
<path d="M0 0 C0.99 0.33 1.98 0.66 3 1 C3 2.32 3 3.64 3 5 C1.68 5 0.36 5 -1 5 C-0.67 3.35 -0.34 1.7 0 0 Z " fill="#01ABF2" transform="translate(48,48)"/>
<path d="" fill="#16E7BE" transform="translate(0,0)"/>
</svg>
