<?xml version="1.0" encoding="UTF-8"?>
<svg version="1.1" xmlns="http://www.w3.org/2000/svg" width="265" height="94">
<path d="M0 0 C35.68531469 -0.69516847 35.68531469 -0.69516847 46 6 C45.14004077 9.53538796 44.35658781 10.77308049 41.25 12.75 C36.52963872 14.52013548 31.56121116 14.42885982 26.578125 14.69921875 C19.24222494 15.31588284 11.53885199 16.88721355 6 22 C4.56082568 25.61416517 4.56082568 25.61416517 4 29 C4.474375 28.4225 4.94875 27.845 5.4375 27.25 C9.00522654 24.11736206 14.10642001 21 19 21 C19 21.99 19 22.98 19 24 C17.71086513 24.67154933 16.41859796 25.33708859 15.125 26 C14.40570313 26.37125 13.68640625 26.7425 12.9453125 27.125 C11 28 11 28 9 28 C9 28.66 9 29.32 9 30 C7.37446717 31.70680947 5.70884005 33.37660195 4 35 C4.33 35 4.66 35 5 35 C6.175625 35.2475 6.175625 35.2475 7.375 35.5 C17.4122307 36.88444561 24.980775 35.9101798 34 31 C35.66946313 29.67016977 37.33668445 28.33751147 39 27 C39.66 27 40.32 27 41 27 C44.36511859 20.52861809 46.36357018 15.25529992 47 8 C51.14448215 10.68831274 53.05743129 13.19298639 54.5625 17.78515625 C55.78326184 23.96526307 54.35357983 29.73008883 51 35 C49.37253306 36.70496537 47.71108689 38.37897032 46 40 C45.505 40.99 45.505 40.99 45 42 C45.7425 42.70125 46.485 43.4025 47.25 44.125 C52.16698225 49.26548144 54.70529559 53.27542284 55.16796875 60.3984375 C54.88860251 64.72536571 53.43389288 68.42590505 51 72 C48.85546875 73.75390625 48.85546875 73.75390625 47 75 C46.83564453 73.89591797 46.83564453 73.89591797 46.66796875 72.76953125 C45.8219719 67.56286773 45.13787503 63.36573917 42 59 C41.67 58.01 41.34 57.02 41 56 C39.25342183 54.91929942 39.25342183 54.91929942 37 54 C36.03964844 53.51402344 35.07929687 53.02804688 34.08984375 52.52734375 C33.04957031 52.00269531 32.00929688 51.47804687 30.9375 50.9375 C29.89464844 50.41027344 28.85179688 49.88304687 27.77734375 49.33984375 C20.63130347 45.89245723 12.66412367 46.34289218 5 48 C4.88722912 49.40070977 4.88722912 49.40070977 7.125 51.3125 C10.76612572 54.716161 14.24745885 57.41581962 19 59 C19 59.66 19 60.32 19 61 C12.44672101 60.72694671 8.93069452 58.18788859 4 54 C4.74244311 58.77783737 4.74244311 58.77783737 7.59765625 62.5078125 C14.69821702 67.22269779 21.77210363 67.96853442 30.125 68.4375 C36.41407502 68.81783283 41.38277307 69.38277307 46 74 C46 74.99 46 75.98 46 77 C40.01529711 81.53386582 33.1749299 82.30175103 25.87890625 82.1953125 C24.76176491 82.19106766 24.76176491 82.19106766 23.62205505 82.18673706 C21.26869899 82.17563917 18.91573891 82.1505551 16.5625 82.125 C14.95638575 82.11495672 13.35026546 82.10583324 11.74414062 82.09765625 C7.82927704 82.07573407 3.9147054 82.04127761 0 82 C0 68 0 54 0 40 C-0.08221709 36.92334973 -0.08221709 36.92334973 -1 34 C-3.38119246 32.59742124 -3.38119246 32.59742124 -6 32 C-6.66 31.67 -7.32 31.34 -8 31 C-8 31.99 -8 32.98 -8 34 C-5.5609294 36.20142332 -5.5609294 36.20142332 -3 38 C-4.15750007 41.47250021 -4.49651926 41.48450991 -7.5625 43.0625 C-12.99497799 46.24536233 -16.33620413 50.98176895 -20 56 C-19.52691406 55.54109375 -19.05382812 55.0821875 -18.56640625 54.609375 C-13.74244095 50.13333702 -9.16068699 47.29599677 -3 45 C-4.47454701 57.80875165 -9.09068216 69.2213954 -19.0625 77.8125 C-25.89350494 82.89941857 -30.54445748 84.53685984 -39 84 C-40.71875 82.859375 -40.71875 82.859375 -42 81 C-43.75811008 69.84946399 -40.49053012 59.95245534 -34 51 C-33.67 50.01 -33.34 49.02 -33 48 C-31.01463373 47.29094062 -29.01089078 46.63305821 -27 46 C-25.77698636 45.31732644 -24.56848848 44.60806943 -23.375 43.875 C-20 42 -20 42 -16 42 C-15.67 41.01 -15.34 40.02 -15 39 C-13.35 39 -11.7 39 -10 39 C-10.64066406 38.731875 -11.28132813 38.46375 -11.94140625 38.1875 C-20.7910387 34.17812852 -26.6529712 28.59232503 -30.3515625 19.50390625 C-31.90085454 13.52139902 -31.73242806 6.92969277 -30 1 C-20.61045171 2.29751559 -11.4492114 5.8510208 -5 13 C-2.73123027 16.17627762 -1.9613986 18.15440558 -1 22 C-0.67 14.74 -0.34 7.48 0 0 Z M-15 24 C-15 24.99 -15 25.98 -15 27 C-14.34 27 -13.68 27 -13 27 C-13.33 26.01 -13.66 25.02 -14 24 C-14.33 24 -14.66 24 -15 24 Z M-13 27 C-13 27.99 -13 28.98 -13 30 C-11.68 29.67 -10.36 29.34 -9 29 C-10.32 28.34 -11.64 27.68 -13 27 Z " fill="#FFFFFF" transform="translate(50,5)"/>
<path d="M0 0 C9.38954829 1.29751559 18.5507886 4.8510208 25 12 C28.61176202 17.05646683 29.12919346 21.11420182 29.0625 27.25 C29.05347656 28.32765625 29.04445312 29.4053125 29.03515625 30.515625 C29.02355469 31.33546875 29.01195312 32.1553125 29 33 C24.25 31.125 24.25 31.125 22 30 C22 30.99 22 31.98 22 33 C24.4390706 35.20142332 24.4390706 35.20142332 27 37 C25.84249993 40.47250021 25.50348074 40.48450991 22.4375 42.0625 C17.00502201 45.24536233 13.66379587 49.98176895 10 55 C10.47308594 54.54109375 10.94617188 54.0821875 11.43359375 53.609375 C16.25755905 49.13333702 20.83931301 46.29599677 27 44 C25.52545299 56.80875165 20.90931784 68.2213954 10.9375 76.8125 C4.10649506 81.89941857 -0.54445748 83.53685984 -9 83 C-10.71875 81.859375 -10.71875 81.859375 -12 80 C-13.75811008 68.84946399 -10.49053012 58.95245534 -4 50 C-3.67 49.01 -3.34 48.02 -3 47 C-1.01463373 46.29094062 0.98910922 45.63305821 3 45 C4.22301364 44.31732644 5.43151152 43.60806943 6.625 42.875 C10 41 10 41 14 41 C14.33 40.01 14.66 39.02 15 38 C16.65 38 18.3 38 20 38 C19.35933594 37.731875 18.71867187 37.46375 18.05859375 37.1875 C9.2089613 33.17812852 3.3470288 27.59232503 -0.3515625 18.50390625 C-1.90085454 12.52139902 -1.73242806 5.92969277 0 0 Z M15 23 C15 23.99 15 24.98 15 26 C15.66 26 16.32 26 17 26 C16.67 25.01 16.34 24.02 16 23 C15.67 23 15.34 23 15 23 Z M17 26 C17 26.99 17 27.98 17 29 C18.32 28.67 19.64 28.34 21 28 C19.68 27.34 18.36 26.68 17 26 Z " fill="#1A5F55" transform="translate(20,6)"/>
<path d="M0 0 C0 0.66 0 1.32 0 2 C0.9590625 2.37125 0.9590625 2.37125 1.9375 2.75 C4 4 4 4 4.75 6.125 C4.8325 6.74375 4.915 7.3625 5 8 C2.65651848 9.53227638 0.55016793 10.89677518 -2 12 C-4 11.5625 -4 11.5625 -6 10 C-7.18419323 9.14125479 -8.37201025 8.28749477 -9.5625 7.4375 C-10.14128906 7.00308594 -10.72007812 6.56867187 -11.31640625 6.12109375 C-15.47928374 3.34906164 -20.18966202 3.50208782 -25 4 C-27.41869578 5.1589584 -29.12322096 6.12322096 -31 8 C-31.60628055 13.32498418 -31.60628055 13.32498418 -29.5 17.875 C-29.005 18.24625 -28.51 18.6175 -28 19 C-28 19.66 -28 20.32 -28 21 C-26.95585937 21.38091797 -26.95585937 21.38091797 -25.890625 21.76953125 C-13.92013242 26.86507877 1.83925694 36.40309535 7 49 C7.74851927 54.89094386 7.49233022 60.0431442 4 65 C-2.21202803 71.53306307 -8.57329481 74.34405537 -17.5246582 74.57055664 C-28.62122034 74.53775304 -36.12387369 73.6399476 -44.4296875 65.66796875 C-50 59.70253028 -50 59.70253028 -50 57 C-43.76 54 -43.76 54 -40.8125 54 C-39 55 -39 55 -37.375 57.25 C-33.5898372 61.63282008 -28.56167484 64.23631371 -22.88671875 65.453125 C-17.46609336 65.75728835 -12.47500702 63.93502485 -8 61 C-5.63814682 58.27944883 -5.63814682 58.27944883 -5 55 C-6.05735859 48.65584848 -10.19205203 44.41431879 -15.0859375 40.5859375 C-16.17132813 39.85632812 -17.25671875 39.12671875 -18.375 38.375 C-19.2397998 37.78827515 -19.2397998 37.78827515 -20.12207031 37.18969727 C-22.93194073 35.3012454 -25.75674271 33.51844575 -28.75 31.9375 C-34.29248864 28.63332408 -39.40858071 24.38712894 -43 19 C-44.34336103 12.28319486 -43.98987037 7.48227315 -40.5 1.375 C-28.07326186 -10.43040123 -13.67319688 -7.80302859 0 0 Z " fill="#FFFFFF" transform="translate(191,13)"/>
<path d="M0 0 C1.93690978 1.68160532 3.81928123 3.39398857 5.66015625 5.1796875 C5.08058468 8.25587505 4.92482699 8.97224287 2.34765625 10.9921875 C-0.33984375 12.1796875 -0.33984375 12.1796875 -2.58984375 12.0546875 C-4.33984375 11.1796875 -4.33984375 11.1796875 -5.33984375 8.1796875 C-7.12213311 7.03758933 -7.12213311 7.03758933 -9.33984375 6.1796875 C-10.06171875 5.8084375 -10.78359375 5.4371875 -11.52734375 5.0546875 C-16.80080508 3.41405508 -21.58228257 3.64614214 -26.83984375 5.2421875 C-29.64766856 7.03810983 -29.64766856 7.03810983 -30.40234375 10.5546875 C-30.33210808 14.62835643 -29.66412236 15.92159275 -27.33984375 19.1796875 C-25.32810399 20.9779818 -25.32810399 20.9779818 -22.96484375 22.4921875 C-22.08957031 23.08 -21.21429688 23.6678125 -20.3125 24.2734375 C-15.9524451 27.06937283 -11.55326215 29.79395452 -7.125 32.48046875 C-5.17102894 33.67258293 -3.24433747 34.91002502 -1.33984375 36.1796875 C-1.33984375 36.8396875 -1.33984375 37.4996875 -1.33984375 38.1796875 C-0.34984375 38.5096875 0.64015625 38.8396875 1.66015625 39.1796875 C5.80816343 43.5194517 8.07405864 47.83247343 8.22265625 53.8671875 C7.84854756 59.4710239 6.90994857 63.1336336 2.6328125 67.0234375 C-7.05956866 74.89345748 -15.70622706 75.15645793 -27.86914062 74.4609375 C-36.26420682 73.5052936 -41.95496527 68.23386405 -47.1953125 62.01171875 C-48.33984375 60.1796875 -48.33984375 60.1796875 -48.33984375 57.1796875 C-44.61019236 55.14533219 -42.67079333 54.1796875 -38.33984375 54.1796875 C-36.91796875 55.5703125 -36.91796875 55.5703125 -35.58984375 57.4296875 C-31.88767943 62.00404091 -27.96198927 64.56436681 -22.109375 65.55859375 C-16.46401745 65.85980904 -11.93352417 64.48240387 -7.33984375 61.1796875 C-5.14906248 58.94764301 -5.14906248 58.94764301 -4.33984375 56.1796875 C-4.60077232 52.91808037 -5.30661355 50.2793781 -6.33984375 47.1796875 C-7.32984375 46.6846875 -7.32984375 46.6846875 -8.33984375 46.1796875 C-8.33984375 45.5196875 -8.33984375 44.8596875 -8.33984375 44.1796875 C-8.9006665 43.91397949 -9.46148926 43.64827148 -10.03930664 43.37451172 C-12.52953938 42.08116575 -14.81267393 40.61755194 -17.1484375 39.0625 C-18.51645508 38.15177734 -18.51645508 38.15177734 -19.91210938 37.22265625 C-20.85763672 36.58972656 -21.80316406 35.95679688 -22.77734375 35.3046875 C-23.71900391 34.67949219 -24.66066406 34.05429687 -25.63085938 33.41015625 C-40.00212618 23.815789 -40.00212618 23.815789 -42.33984375 17.1796875 C-42.9836314 12.60164198 -42.96111437 8.65111793 -41.15234375 4.3671875 C-36.63267865 -1.08758072 -33.06982546 -3.82624384 -26.33984375 -5.8203125 C-25.16421875 -6.1915625 -25.16421875 -6.1915625 -23.96484375 -6.5703125 C-15.13788062 -7.41097566 -7.03015782 -5.46920458 0 0 Z " fill="#FFFFFF" transform="translate(250.33984375,12.8203125)"/>
<path d="M0 0 C1.95197384 5.85592152 -1.25042082 12.76192057 -3.8125 18.1875 C-8.55528349 26.98779788 -15.20836169 35.04455099 -24.8125 38.6875 C-33.58293076 39.94041868 -33.58293076 39.94041868 -36.71875 37.859375 C-39.59501499 33.68528313 -38.49831971 27.81709053 -38 23 C-36.76892252 18.22018274 -35.54298759 13.54298759 -32 10 C-28.22745582 9.98137935 -24.50388619 10.10450358 -20.74023438 10.34179688 C-15.50028613 10.51115695 -15.50028613 10.51115695 -11.15625 7.62890625 C-10.4446875 6.76136719 -9.733125 5.89382812 -9 5 C-6.1517049 3.05927789 -3.08253435 1.54126718 0 0 Z " fill="#18E2B3" transform="translate(46,50)"/>
<path d="M0 0 C3.3 0 6.6 0 10 0 C10 26.4 10 52.8 10 80 C6.7 80 3.4 80 0 80 C0 53.6 0 27.2 0 0 Z " fill="#FFFFFF" transform="translate(106,6)"/>
<path d="M0 0 C3.63 0 7.26 0 11 0 C11 19.14 11 38.28 11 58 C7.37 58 3.74 58 0 58 C0 38.86 0 19.72 0 0 Z " fill="#FFFFFF" transform="translate(127,28)"/>
<path d="M0 0 C2.97 0.495 2.97 0.495 6 1 C6 1.99 6 2.98 6 4 C6.66 4 7.32 4 8 4 C8 4.99 8 5.98 8 7 C9.32 7 10.64 7 12 7 C12.061875 7.5775 12.12375 8.155 12.1875 8.75 C13.32027301 11.88690987 15.34197595 13.09167504 18 15 C16.84373951 18.46878146 16.43135213 18.55311865 13.375 20.1875 C8.59516502 23.0037271 5.44953242 26.72058007 2 31 C1 32 1 32 -2.37890625 32.09765625 C-3.77347077 32.09098369 -5.16801743 32.07902532 -6.5625 32.0625 C-7.62887695 32.05573242 -7.62887695 32.05573242 -8.71679688 32.04882812 C-10.47790013 32.03700864 -12.23896036 32.01907263 -14 32 C-13.16796875 28.57421875 -13.16796875 28.57421875 -12 25 C-9.3125 23.8125 -9.3125 23.8125 -6 23 C-4.77312467 22.32429113 -3.56460898 21.61434838 -2.375 20.875 C1 19 1 19 5 19 C5.33 18.01 5.66 17.02 6 16 C7.65 16 9.3 16 11 16 C10.28972656 15.69707031 9.57945313 15.39414062 8.84765625 15.08203125 C7.92855469 14.66308594 7.00945313 14.24414062 6.0625 13.8125 C5.14597656 13.40644531 4.22945312 13.00039063 3.28515625 12.58203125 C1 11 1 11 0.05859375 8.44921875 C0.03925781 7.64097656 0.01992188 6.83273438 0 6 C0.66 5.34 1.32 4.68 2 4 C1.34 3.67 0.68 3.34 0 3 C0 2.01 0 1.02 0 0 Z " fill="#2B9053" transform="translate(29,28)"/>
<path d="M0 0 C1.19297098 3.57891295 0.69377582 4.98092113 -0.3125 8.5625 C-0.70888672 10.01849609 -0.70888672 10.01849609 -1.11328125 11.50390625 C-2 14 -2 14 -4 16 C-4.33 15.34 -4.66 14.68 -5 14 C-5.99 13.67 -6.98 13.34 -8 13 C-8 13.99 -8 14.98 -8 16 C-16.91 16 -25.82 16 -35 16 C-33 11 -33 11 -32 10 C-28.25854515 10.07573795 -24.5252426 10.17712899 -20.7890625 10.390625 C-16.39195938 10.50520749 -14.64645823 10.53915858 -11.15234375 7.625 C-10.44207031 6.75875 -9.73179688 5.8925 -9 5 C-6.1517049 3.05927789 -3.08253435 1.54126718 0 0 Z " fill="#16CDA8" transform="translate(46,50)"/>
<path d="M0 0 C3 2.1875 3 2.1875 5 5 C5.07633465 8.2060553 4.50280094 9.43918357 2.375 11.8125 C-1.01720722 13.50860361 -3.25506845 13.52560443 -7 13 C-10 10.8125 -10 10.8125 -12 8 C-12.07633465 4.7939447 -11.50280094 3.56081643 -9.375 1.1875 C-5.98279278 -0.50860361 -3.74493155 -0.52560443 0 0 Z " fill="#FFFFFF" transform="translate(136,5)"/>
<path d="M0 0 C0 0.99 0 1.98 0 3 C1.65 3 3.3 3 5 3 C2.99590723 9.9372442 2.99590723 9.9372442 0 12 C-2.64996326 12.2172101 -5.05076558 12.28351554 -7.6875 12.1875 C-8.7403418 12.16719727 -8.7403418 12.16719727 -9.81445312 12.14648438 C-11.54329829 12.11120182 -13.27174765 12.05739583 -15 12 C-14.17578125 8.578125 -14.17578125 8.578125 -13 5 C-10.1875 3.75 -10.1875 3.75 -7 3 C-1.92307692 0 -1.92307692 0 0 0 Z " fill="#279574" transform="translate(30,48)"/>
<path d="M0 0 C1.31223496 3.93670488 0.24296256 6.12488144 -1 10 C-4.96 10 -8.92 10 -13 10 C-11.57724669 5.73174008 -8.73656032 4.29700129 -5 2 C-2.0625 0.6875 -2.0625 0.6875 0 0 Z " fill="#10A7B1" transform="translate(46,50)"/>
<path d="M0 0 C2.7885289 -0.22107787 5.34653181 -0.28107535 8.125 -0.1875 C8.87910156 -0.17396484 9.63320313 -0.16042969 10.41015625 -0.14648438 C12.27374127 -0.11109985 14.13695978 -0.05729167 16 0 C15.67 0.99 15.34 1.98 15 3 C9.39 3 3.78 3 -2 3 C-1.34 2.01 -0.68 1.02 0 0 Z " fill="#16BA9A" transform="translate(14,60)"/>
<path d="M0 0 C0.33 0.66 0.66 1.32 1 2 C3.64 2 6.28 2 9 2 C9 2.66 9 3.32 9 4 C4.38 4 -0.24 4 -5 4 C-4.67 3.34 -4.34 2.68 -4 2 C-2.68 2 -1.36 2 0 2 C0 1.34 0 0.68 0 0 Z " fill="#15B596" transform="translate(36,58)"/>
<path d="M0 0 C0.33 0.66 0.66 1.32 1 2 C1.66 2 2.32 2 3 2 C3.33 2.99 3.66 3.98 4 5 C0.62182575 5.84454356 -1.67465243 6.10844919 -5 5 C-3.35 3.35 -1.7 1.7 0 0 Z " fill="#629D60" transform="translate(38,54)"/>
<path d="M0 0 C2.64 0.33 5.28 0.66 8 1 C6.8125 2.5 6.8125 2.5 5 4 C2.3125 4.1875 2.3125 4.1875 0 4 C0 2.68 0 1.36 0 0 Z " fill="#655C5C" transform="translate(30,47)"/>
<path d="M0 0 C0.33 0.99 0.66 1.98 1 3 C-0.65 3.33 -2.3 3.66 -4 4 C-4.33 4.99 -4.66 5.98 -5 7 C-5.66 6.67 -6.32 6.34 -7 6 C-5.9024777 3.00675737 -5.32317108 2.15389099 -2.375 0.75 C-1.59125 0.5025 -0.8075 0.255 0 0 Z " fill="#139784" transform="translate(46,50)"/>
<path d="M0 0 C6.93 0.495 6.93 0.495 14 1 C13.34 2.32 12.68 3.64 12 5 C11.67 4.34 11.34 3.68 11 3 C8.41394668 2.5316735 8.41394668 2.5316735 5.4375 2.375 C3.91962891 2.26285156 3.91962891 2.26285156 2.37109375 2.1484375 C1.19740234 2.07496094 1.19740234 2.07496094 0 2 C0 1.34 0 0.68 0 0 Z " fill="#14C3A2" transform="translate(30,61)"/>
<path d="M0 0 C0 1.32 0 2.64 0 4 C-0.99 4.33 -1.98 4.66 -3 5 C-3.99 4.01 -4.98 3.02 -6 2 C-3 0 -3 0 0 0 Z " fill="#0A8BA7" transform="translate(47,32)"/>
</svg>
